<svg aria-hidden="true" style="position: absolute; width: 0; height: 0; overflow: hidden;" version="1.1" xmlns="http://www.w3.org/2000/svg" xmlns:xlink="http://www.w3.org/1999/xlink">
<defs>

<symbol id="icon-x" viewBox="0 0 32 32">
<path stroke-linejoin="round" stroke-linecap="round" stroke-miterlimit="4" stroke-width="3.4286" d="M24 8l-16 16M8 8l16 16"></path>
</symbol>
<symbol id="icon-send" viewBox="0 0 33 32">
<path d="M0.442 0.086c0.010 0.033 0.659 3.28 1.44 7.215 0.782 3.932 1.434 7.165 1.447 7.182s4.378 0.273 9.7 0.572c5.319 0.299 9.677 0.542 9.683 0.546 0.027 0.003 0 0.2-0.027 0.2-0.057 0-19.306 1.597-19.36 1.607-0.037 0.007-0.452 1.81-1.683 7.275-0.901 3.998-1.633 7.272-1.627 7.278 0.017 0.017 32.549-16.373 32.549-16.396 0-0.017-31.913-15.454-32.080-15.518-0.050-0.020-0.057-0.010-0.043 0.040z"></path>
</symbol>

</defs>
</svg>
